Coordinates
version=1
nRows=21
nColumns=28
inDegrees=yes

Units are S.I. units (second, meters, Newtons, ...)
Angles are in degrees.

endheader
time	pelvis_tilt	pelvis_list	pelvis_rotation	pelvis_tx	pelvis_ty	pelvis_tz	hip_flexion_r	hip_adduction_r	hip_rotation_r	knee_angle_r	ankle_angle_r	subtalar_angle_r	mtp_angle_r	hip_flexion_l	hip_adduction_l	hip_rotation_l	knee_angle_l	socket_flexion	socket_adduction	socket_rotation	socket_tx	socket_ty	socket_tz	foot_flex	lumbar_extension	lumbar_bending	lumbar_rotation
      0.93750000	     14.56724322	     -0.28390772	     -8.51353819	      0.47952271	      1.04807415	      0.31704357	     -7.39831125	      0.12582814	    -10.06277327	    -20.94506762	      0.90946863	      3.94797252	     42.31711144	     -6.36667890	      1.09871724	     -5.49358565	    -54.65998633	      0.00000000	      0.00000000	      0.00000000	      0.00000000	      0.02021339	      0.00000000	      2.51629379	    -24.47865901	     -2.18172425	     14.04747083
      0.94166667	     14.57174336	     -0.31077775	     -8.76810530	      0.48366158	      1.04888758	      0.31735391	     -7.67794821	      0.02481120	    -10.11111232	    -20.88856026	      0.92283289	      3.97228528	     42.31821160	     -5.85393278	      1.05012612	     -5.40640256	    -54.29863950	      0.00000000	      0.00000000	      0.00000000	      0.00000000	      0.01971469	      0.00000000	      2.55489464	    -24.60837257	     -2.21990273	     14.06632006
      0.94583333	     14.54832929	     -0.10584757	     -9.03659608	      0.48863443	      1.04982225	      0.31792757	     -8.19258712	     -0.25650550	     -9.94990459	    -20.30030819	      0.84344040	      4.25248596	     42.41979569	     -5.46720473	      1.28342717	     -5.20868371	    -53.60307533	      0.00000000	      0.00000000	      0.00000000	      0.00000000	      0.01913809	      0.00000000	      2.52567492	    -24.46545935	     -2.59363740	     14.25293434
      0.95000000	     14.56052869	     -0.13511178	     -9.29027370	      0.49258121	      1.05059979	      0.31825007	     -8.45364081	     -0.35994110	     -9.98813130	    -20.26088500	      0.82443746	      4.29883190	     42.42463699	     -4.94793543	      1.22578753	     -5.11607105	    -53.19791093	      0.00000000	      0.00000000	      0.00000000	      0.00000000	      0.01878459	      0.00000000	      2.54887091	    -24.62663101	     -2.63909524	     14.29154401
      0.95416667	     14.53400662	      0.04717330	     -9.60492790	      0.49760478	      1.05144206	      0.31873908	     -8.93989445	     -0.64717408	     -9.79957680	    -19.71811819	      0.63204154	      4.65611349	     42.53525820	     -4.64704217	      1.48576231	     -4.86121170	    -52.32470285	      0.00000000	      0.00000000	      0.00000000	      0.00000000	      0.01796145	      0.00000000	      2.49011522	    -24.47102094	     -2.98602971	     14.55514179
      0.95833333	     14.89390957	      0.00382837	    -10.09510629	      0.50211453	      1.05248971	      0.31932034	     -9.63457652	     -0.94928535	    -10.02006719	    -19.53939344	      0.22356045	      6.34662023	     43.81784219	     -4.82937859	      1.54177210	     -4.94211944	    -51.39634840	      0.00000000	      0.00000000	      0.00000000	      0.00000000	      0.01680777	      0.00000000	      2.34467713	    -24.89174569	     -3.27434333	     15.60517490
      0.96250000	     14.89352159	     -0.03254328	    -10.34143659	      0.50592115	      1.05317667	      0.31962461	     -9.86954432	     -1.04371039	    -10.06114320	    -19.50447824	      0.22186481	      6.35954052	     43.81925706	     -4.28782505	      1.47783979	     -4.80095247	    -50.93715491	      0.00000000	      0.00000000	      0.00000000	      0.00000000	      0.01667838	      0.00000000	      2.39041885	    -25.05598909	     -3.31706717	     15.60060452
      0.96666667	     14.79433625	      0.10477567	    -10.58103561	      0.51089032	      1.05378045	      0.31996003	    -10.23999370	     -1.26748364	     -9.93137265	    -19.05375810	      0.09285423	      6.54906145	     43.91790364	     -3.95711379	      1.67923267	     -4.41178728	    -49.93032621	      0.00000000	      0.00000000	      0.00000000	      0.00000000	      0.01567023	      0.00000000	      2.32585608	    -24.85029221	     -3.54159339	     15.65642683
      0.97083333	     14.98335057	      0.14038373	    -10.87143847	      0.51552177	      1.05453363	      0.32026590	    -10.76987050	     -1.60403855	    -10.40398942	    -18.83880734	     -0.44898008	      7.92973657	     45.99316217	     -3.90960113	      1.79487199	     -4.18492405	    -48.98671867	      0.00000000	      0.00000000	      0.00000000	      0.00000000	      0.01476718	      0.00000000	      2.19231684	    -25.04921983	     -3.75708066	     16.02339476
      0.97500000	     14.96830759	      0.09688291	    -11.10529637	      0.51919772	      1.05508863	      0.32055010	    -10.98138726	     -1.68717050	    -10.42263068	    -18.80311105	     -0.45438374	      7.93768013	     45.98313781	     -3.36141923	      1.71285056	     -4.01200034	    -48.45917016	      0.00000000	      0.00000000	      0.00000000	      0.00000000	      0.01475256	      0.00000000	      2.24539983	    -25.22504616	     -3.80543838	     16.02842585
      0.97916667	     14.84396399	      0.14843559	    -11.33799762	      0.52397152	      1.05549777	      0.32077038	    -11.27206792	     -1.82227969	    -10.22994447	    -18.47409704	     -0.55358862	      8.05720562	     46.00675747	     -3.05355319	      1.83578466	     -3.51351375	    -47.35398060	      0.00000000	      0.00000000	      0.00000000	      0.00000000	      0.01363138	      0.00000000	      2.21534155	    -25.02034119	     -3.91847296	     16.10393875
      0.98333333	     14.73344331	      0.13089686	    -11.58893174	      0.52851394	      1.05590794	      0.32112033	    -11.56336091	     -1.90042434	    -10.15099573	    -18.15157926	     -0.70777778	      8.23813248	     46.04894256	     -2.67760521	      1.81340723	     -3.21530611	    -46.39504126	      0.00000000	      0.00000000	      0.00000000	      0.00000000	      0.01285696	      0.00000000	      2.07096917	    -24.92325889	     -3.99651625	     16.24370451
      0.98750000	     14.71778456	     -0.02887898	    -11.91007953	      0.53289862	      1.05634742	      0.32153727	    -11.95301315	     -1.88637271	    -10.06342943	    -17.82312380	     -1.16457132	      8.97324874	     46.53558703	     -2.45554105	      1.64527412	     -3.02404287	    -45.41211541	      0.00000000	      0.00000000	      0.00000000	      0.00000000	      0.01192999	      0.00000000	      1.96736043	    -24.96244565	     -3.99087114	     16.82207880
      0.99166667	     14.65016665	     -0.06095359	    -12.13842269	      0.53705890	      1.05667193	      0.32178615	    -12.19492338	     -1.97345228	    -10.00716822	    -17.68020883	     -1.18729714	      9.07155974	     46.60256966	     -2.06125831	      1.60714804	     -2.66509061	    -44.52423462	      0.00000000	      0.00000000	      0.00000000	      0.00000000	      0.01146808	      0.00000000	      1.93352717	    -24.95493631	     -4.03712223	     16.86554102
      0.99583333	     14.53404577	     -0.15287855	    -12.35200184	      0.54146550	      1.05689401	      0.32205216	    -12.47565724	     -1.96518882	     -9.91500895	    -17.38727163	     -1.36127981	      9.40880606	     46.76293891	     -1.72722905	      1.49599819	     -2.29153865	    -43.48301414	      0.00000000	      0.00000000	      0.00000000	      0.00000000	      0.01056271	      0.00000000	      1.79997698	    -24.88109096	     -4.01091131	     17.06808642
      1.00000000	     14.46474485	     -0.20884291	    -12.56232696	      0.54545076	      1.05709877	      0.32228902	    -12.67327718	     -2.01503684	     -9.81325070	    -17.33158841	     -1.40306673	      9.50802204	     46.80173710	     -1.33450801	      1.42091563	     -1.88170169	    -42.57900936	      0.00000000	      0.00000000	      0.00000000	      0.00000000	      0.01016999	      0.00000000	      1.86012115	    -24.92121112	     -4.03811583	     17.12152941
      1.00416667	     14.29975803	     -0.38792355	    -12.76826507	      0.54994097	      1.05720636	      0.32254203	    -12.95971567	     -1.90062253	     -9.69811341	    -16.95350621	     -1.62669656	      9.95789835	     46.95554798	     -1.00207722	      1.18767312	     -1.51322186	    -41.49271032	      0.00000000	      0.00000000	      0.00000000	      0.00000000	      0.00918843	      0.00000000	      1.66146844	    -24.78867393	     -3.91429857	     17.43219171
      1.00833333	     14.21947288	     -0.45241183	    -12.97592784	      0.55393166	      1.05730014	      0.32276236	    -13.14702419	     -1.94343152	     -9.60205484	    -16.90697513	     -1.65240881	     10.04539611	     46.98666018	     -0.62983326	      1.09193514	     -1.09355726	    -40.53452320	      0.00000000	      0.00000000	      0.00000000	      0.00000000	      0.00878694	      0.00000000	      1.70296358	    -24.80881987	     -3.92862574	     17.48289038
      1.01250000	     14.09326736	     -0.54884247	    -13.16993657	      0.55811374	      1.05729686	      0.32302932	    -13.34513157	     -1.92588173	     -9.49930546	    -16.76428191	     -1.68471942	     10.17065722	     47.01559793	     -0.27833698	      0.94549333	     -0.64525402	    -39.48086636	      0.00000000	      0.00000000	      0.00000000	      0.00000000	      0.00815771	      0.00000000	      1.63334541	    -24.75420226	     -3.90540106	     17.56609873
      1.01666667	     13.94604600	     -0.67420125	    -13.33574383	      0.56234255	      1.05721388	      0.32324416	    -13.55256899	     -1.86259884	     -9.38904502	    -16.57290533	     -1.73404340	     10.32673022	     47.04243154	      0.07593503	      0.74719029	     -0.21064251	    -38.41187594	      0.00000000	      0.00000000	      0.00000000	      0.00000000	      0.00744219	      0.00000000	      1.52807913	    -24.67365813	     -3.81954034	     17.68432702
      1.02083333	     13.79073549	     -0.82922917	    -13.51215391	      0.56650010	      1.05711867	      0.32353415	    -13.75102309	     -1.76425342	     -9.27213890	    -16.38964228	     -1.79230240	     10.48141631	     47.06275976	      0.44530658	      0.50570566	      0.23884072	    -37.36907184	      0.00000000	      0.00000000	      0.00000000	      0.00000000	      0.00688683	      0.00000000	      1.44937920	    -24.60651491	     -3.72893659	     17.81016205
